HIERARCHY
ROOT Hips
{
	OFFSET 0.00000 0.00000 0.00000
	CHANNELS 6 Xposition Yposition Zposition Zrotation Yrotation Xrotation 
	JOINT LHipJoint
	{
		OFFSET 0 0 0
		CHANNELS 3 Zrotation Yrotation Xrotation
		JOINT LeftUpLeg
		{
			OFFSET 1.84395 -1.68683 0.74144
			CHANNELS 3 Zrotation Yrotation Xrotation
			JOINT LeftLeg
			{
				OFFSET 2.27037 -6.23779 0.00000
				CHANNELS 3 Zrotation Yrotation Xrotation
				JOINT LeftFoot
				{
					OFFSET 2.56918 -7.05877 0.00000
					CHANNELS 3 Zrotation Yrotation Xrotation
					JOINT LeftToeBase
					{
						OFFSET 0.22276 -0.61202 1.71784
						CHANNELS 3 Zrotation Yrotation Xrotation
						End Site
						{
							OFFSET 0.00000 -0.00000 0.91613
						}
					}
				}
			}
		}
	}
	JOINT RHipJoint
	{
		OFFSET 0 0 0
		CHANNELS 3 Zrotation Yrotation Xrotation
		JOINT RightUpLeg
		{
			OFFSET -1.76833 -1.68684 0.74144
			CHANNELS 3 Zrotation Yrotation Xrotation
			JOINT RightLeg
			{
				OFFSET -2.49360 -6.85110 0.00000
				CHANNELS 3 Zrotation Yrotation Xrotation
				JOINT RightFoot
				{
					OFFSET -2.55538 -7.02085 0.00000
					CHANNELS 3 Zrotation Yrotation Xrotation
					JOINT RightToeBase
					{
						OFFSET -0.21516 -0.59115 1.68050
						CHANNELS 3 Zrotation Yrotation Xrotation
						End Site
						{
							OFFSET -0.00000 -0.00000 0.89604
						}
					}
				}
			}
		}
	}
	JOINT LowerBack
	{
		OFFSET 0 0 0
		CHANNELS 3 Zrotation Yrotation Xrotation
		JOINT Spine
		{
			OFFSET 0.06382 1.72312 -0.19613
			CHANNELS 3 Zrotation Yrotation Xrotation
			JOINT Spine1
			{
				OFFSET -0.00055 1.73507 0.23859
				CHANNELS 3 Zrotation Yrotation Xrotation
				JOINT Neck
				{
					OFFSET 0 0 0
					CHANNELS 3 Zrotation Yrotation Xrotation
					JOINT Neck1
					{
						OFFSET 0.03638 1.65562 0.09633
						CHANNELS 3 Zrotation Yrotation Xrotation
						JOINT Head
						{
							OFFSET 0.06388 1.62807 -0.32386
							CHANNELS 3 Zrotation Yrotation Xrotation
							End Site
							{
								OFFSET 0.00995 1.67644 -0.12021
							}
						}
					}
				}
				JOINT LeftShoulder
				{
					OFFSET 0 0 0
					CHANNELS 3 Zrotation Yrotation Xrotation
					JOINT LeftArm
					{
						OFFSET 3.09648 1.42991 0.28122
						CHANNELS 3 Zrotation Yrotation Xrotation
						JOINT LeftForeArm
						{
							OFFSET 5.11878 -0.00000 -0.00000
							CHANNELS 3 Zrotation Yrotation Xrotation
							JOINT LeftHand
							{
								OFFSET 3.59971 -0.00000 0.00000
								CHANNELS 3 Zrotation Yrotation Xrotation
								JOINT LeftFingerBase
								{
									OFFSET 0 0 0
									CHANNELS 3 Zrotation Yrotation Xrotation
									JOINT LeftHandIndex1
									{
										OFFSET 0.62877 -0.00000 0.00000
										CHANNELS 3 Zrotation Yrotation Xrotation
										End Site
										{
											OFFSET 0.50693 -0.00000 0.00000
										}
									}
								}
								JOINT LThumb
								{
									OFFSET 0 0 0
									CHANNELS 3 Zrotation Yrotation Xrotation
									End Site
									{
										OFFSET 0.51467 -0.00000 0.51467
									}
								}
							}
						}
					}
				}
				JOINT RightShoulder
				{
					OFFSET 0 0 0
					CHANNELS 3 Zrotation Yrotation Xrotation
					JOINT RightArm
					{
						OFFSET -3.33565 1.14597 0.05047
						CHANNELS 3 Zrotation Yrotation Xrotation
						JOINT RightForeArm
						{
							OFFSET -5.49020 -0.00000 0.00000
							CHANNELS 3 Zrotation Yrotation Xrotation
							JOINT RightHand
							{
								OFFSET -3.20659 -0.00000 -0.00000
								CHANNELS 3 Zrotation Yrotation Xrotation
								JOINT RightFingerBase
								{
									OFFSET 0 0 0
									CHANNELS 3 Zrotation Yrotation Xrotation
									JOINT RightHandIndex1
									{
										OFFSET -0.69188 -0.00000 0.00000
										CHANNELS 3 Zrotation Yrotation Xrotation
										End Site
										{
											OFFSET -0.55781 -0.00000 0.00000
										}
									}
								}
								JOINT RThumb
								{
									OFFSET 0 0 0
									CHANNELS 3 Zrotation Yrotation Xrotation
									End Site
									{
										OFFSET -0.56633 -0.00000 0.56633
									}
								}
							}
						}
					}
				}
			}
		}
	}
}
MOTION
Frames: 7
Frame Time: .0083333
-0.3175 17.4641 7.8125 0 0 0 0 0 0 -21 0 0 0 0 0 0 0 0 0 0 0 0 0 0 21 0 0 0 0 0 0 0 0 0 0 0 0 0 0 0 0 0 0 0 0 0 0 -16 0 0 21 0 0 11 0 0 0 -8 0 0 0 0 0 0 0 0 0 0 0 0 0 0 0 0 0 0 0 0 8 0 0 0 0 0 0 0 0 0 0 0 0 0 0 0 0 0
-0.3175 17.4641 7.8125 -8.1618 -6.2251 8.4435 0.0000 0.0000 0.0000 -22.9886 -36.3699 25.4942 0.0637 -1.6281 -4.4790 -3.9839 42.5555 -47.1796 1.2196 7.0049 19.7300 0.0000 0.0000 0.0000 27.3765 24.4321 6.8721 -0.0145 -0.7784 2.1392 0.3704 -14.7459 -16.2303 -0.0457 1.3789 -3.7921 5.6186 1.3055 -0.0360 1.4336 2.1466 -9.0108 -1.7801 0.6721 -9.3785 -6.5623 -8.7949 -7.9399 9.2121 -13.6670 23.5846 2.7083 -6.0887 9.8747 -0.0000 -0.0000 0.0000 -90.6515 10.7493 8.8443 11.3591 -18.8366 -1.8902 -0.0000 -0.0000 34.1580 12.1634 -11.0471 -2.3650 -7.1250 0.0000 -0.0000 -10.4985 18.7877 6.6705 -0.0000 -0.0000 0.0000 92.7504 -13.0958 4.8681 -13.8649 22.5413 -2.7761 0.0000 0.0000 40.0286 5.7518 -32.0187 -3.0570 7.1250 -0.0000 -0.0000 40.8796 -57.0235 -13.5751
-0.3185 17.4644 7.8110 -8.0589 -6.2183 8.4534 0.0000 0.0000 0.0000 -23.1773 -36.4999 25.5522 0.0624 -1.6114 -4.4328 -3.9262 42.5563 -47.3799 1.2568 7.1069 20.0326 0.0000 0.0000 0.0000 27.2549 24.4728 6.8654 -0.0146 -0.7796 2.1425 0.3733 -14.8012 -16.2903 -0.0424 1.3295 -3.6560 5.4381 1.1240 -0.1559 1.6164 1.9027 -9.1359 -1.4648 0.5707 -9.4746 -6.9624 -8.5559 -7.1760 9.2341 -13.2850 23.4602 2.8663 -5.9771 9.6788 0.0000 -0.0000 0.0000 -91.0392 11.3597 8.8367 11.3082 -18.7591 -1.8738 -0.0000 -0.0000 32.6602 13.2443 -10.9879 -2.5686 -7.1250 0.0000 -0.0000 -9.7433 18.7879 6.1759 0.0000 -0.0000 0.0000 92.3285 -13.5084 5.3823 -13.7969 22.4436 -2.7501 0.0000 0.0000 40.0947 5.9661 -31.9759 -3.1677 7.1250 -0.0000 -0.0000 41.0350 -56.9452 -13.5582
-0.3190 17.4644 7.8095 -8.0786 -6.1798 8.4481 0.0000 0.0000 0.0000 -23.1642 -36.5154 25.5868 0.0632 -1.6223 -4.4629 -3.9777 42.6091 -47.3088 1.2351 7.0476 19.8564 0.0000 0.0000 0.0000 27.2862 24.4708 6.8771 -0.0145 -0.7785 2.1396 0.3754 -14.8291 -16.3118 -0.0433 1.3423 -3.6912 5.3940 0.9208 -0.1802 1.8749 1.6375 -9.0016 -1.1451 0.4614 -9.3353 -7.3941 -8.4358 -7.5623 9.1842 -13.0255 23.6041 2.9350 -5.8804 9.8057 -0.0000 0.0000 0.0000 -91.5429 11.2991 8.5075 11.1942 -18.5852 -1.8373 -0.0000 -0.0000 31.5642 14.3631 -11.0234 -2.8032 -7.1250 0.0000 -0.0000 -8.9576 18.6864 5.6853 -0.0000 0.0000 0.0000 91.7996 -13.3159 6.0119 -13.6839 22.2810 -2.7071 0.0000 0.0000 39.9365 5.7599 -31.9578 -3.0561 7.1250 -0.0000 -0.0000 40.8289 -56.9748 -13.5036
-0.3193 17.4644 7.8079 -8.1372 -6.1247 8.4123 0.0000 0.0000 0.0000 -23.0497 -36.4215 25.5541 0.0638 -1.6302 -4.4848 -4.0387 42.5975 -47.0746 1.1931 6.9310 19.5110 0.0000 0.0000 0.0000 27.3821 24.4452 6.9360 -0.0142 -0.7695 2.1147 0.3795 -14.8581 -16.3025 -0.0433 1.3437 -3.6950 5.3875 0.6979 -0.1531 2.1511 1.3525 -8.8659 -0.8275 0.3391 -9.2243 -7.8306 -8.3200 -7.9565 9.0949 -12.7521 23.7226 2.9935 -5.7829 9.9207 -0.0000 -0.0000 0.0000 -92.0659 11.2416 8.1050 11.0836 -18.4162 -1.8022 -0.0000 -0.0000 30.5543 15.4787 -10.9369 -3.0076 -7.1250 0.0000 -0.0000 -8.1752 18.7056 5.1744 -0.0000 -0.0000 0.0000 91.2861 -13.1167 6.5714 -13.5475 22.0842 -2.6556 0.0000 0.0000 39.8957 5.5938 -32.0370 -2.9741 7.1250 -0.0000 -0.0000 40.7522 -57.0712 -13.5715
-0.3234 17.4682 7.8124 -7.8736 -6.0910 8.4915 0.0000 0.0000 0.0000 -23.2552 -36.4687 25.3795 0.0623 -1.6102 -4.4296 -4.0399 42.5578 -46.9898 1.1878 6.9164 19.4678 0.0000 0.0000 0.0000 27.0506 24.4818 6.8955 -0.0124 -0.7179 1.9728 0.4003 -14.9941 -16.2402 -0.0346 1.1999 -3.2991 5.1037 0.6875 -0.3633 2.0613 1.3019 -8.8584 -0.7593 0.3351 -9.0927 -7.8418 -8.3818 -7.9247 9.0436 -12.8242 23.6949 2.9688 -5.8242 9.9091 -0.0000 -0.0000 0.0000 -92.0209 11.3331 8.4903 10.9556 -18.2202 -1.7620 -0.0000 -0.0000 29.4794 16.6455 -10.7830 -3.2015 -7.1250 0.0000 -0.0000 -7.3549 18.7882 4.6325 -0.0000 -0.0000 0.0000 91.3643 -13.0719 6.3130 -13.3484 21.7955 -2.5812 0.0000 0.0000 40.0454 5.5229 -32.0854 -2.9402 7.1250 -0.0000 -0.0000 40.7336 -57.1238 -13.6180
-0.3314 17.4746 7.8240 -7.4505 -6.0710 8.6822 0.0000 0.0000 0.0000 -23.7234 -36.7868 25.2854 0.0605 -1.5866 -4.3646 -4.0054 42.6133 -47.2217 1.2189 7.0028 19.7238 0.0000 0.0000 0.0000 26.4991 24.5970 6.7924 -0.0095 -0.6282 1.7262 0.4385 -15.2501 -16.1420 -0.0221 0.9599 -2.6385 4.5707 0.6575 -0.8304 1.9709 1.1989 -8.8685 -0.5467 0.3263 -8.8328 -7.9136 -8.4270 -7.9440 9.0554 -12.8928 23.8122 2.9744 -5.8581 9.9680 -0.0000 -0.0000 0.0000 -92.0547 11.4497 9.3298 10.8033 -17.9861 -1.7147 -0.0000 -0.0000 27.0244 18.9567 -10.7265 -3.6579 -7.1250 0.0000 -0.0000 -5.7240 18.6854 3.6065 -0.0000 -0.0000 0.0000 91.3661 -12.9764 6.1822 -13.0573 21.3712 -2.4741 0.0000 0.0000 40.0824 5.3514 -32.1031 -2.8499 7.1250 -0.0000 -0.0000 40.5929 -57.1739 -13.6109
